<svg xmlns="http://www.w3.org/2000/svg" fill="none" viewBox="0 0 91 47">
	<path fill="#373737" d="M7.09 21.3C5.75 21.3 4.51 21.04 3.37 20.52 2.25 19.98 1.33 19.23.61 18.27L2.83 15.6C3.99 17.2 5.38 18 7 18 9.18 18 10.27 16.71 10.27 14.13V3.27H2.8V-.00000143051H14.17V13.92C14.17 16.38 13.57 18.23 12.37 19.47 11.17 20.69 9.41 21.3 7.09 21.3zM26.4803 21.21C24.8603 21.21 23.4003 20.86 22.1003 20.16 20.8003 19.46 19.7803 18.49 19.0403 17.25 18.3203 15.99 17.9603 14.57 17.9603 12.99 17.9603 11.41 18.3203 10 19.0403 8.76 19.7803 7.52 20.8003 6.55 22.1003 5.85 23.4003 5.15 24.8603 4.8 26.4803 4.8 28.1203 4.8 29.5903 5.15 30.8903 5.85 32.1903 6.55 33.2003 7.52 33.9203 8.76 34.6603 10 35.0303 11.41 35.0303 12.99 35.0303 14.57 34.6603 15.99 33.9203 17.25 33.2003 18.49 32.1903 19.46 30.8903 20.16 29.5903 20.86 28.1203 21.21 26.4803 21.21zM26.4803 18C27.8603 18 29.0003 17.54 29.9003 16.62 30.8003 15.7 31.2503 14.49 31.2503 12.99 31.2503 11.49 30.8003 10.28 29.9003 9.36 29.0003 8.44 27.8603 7.98 26.4803 7.98 25.1003 7.98 23.9603 8.44 23.0603 9.36 22.1803 10.28 21.7403 11.49 21.7403 12.99 21.7403 14.49 22.1803 15.7 23.0603 16.62 23.9603 17.54 25.1003 18 26.4803 18zM47.7063 4.8C49.7263 4.8 51.3463 5.39 52.5663 6.57 53.7863 7.75 54.3963 9.5 54.3963 11.82V21H50.6463V12.3C50.6463 10.9 50.3163 9.85 49.6563 9.15 48.9963 8.43 48.0563 8.07 46.8363 8.07 45.4563 8.07 44.3663 8.49 43.5663 9.33 42.7663 10.15 42.3663 11.34 42.3663 12.9V21H38.6163V4.98H42.1863V7.05C42.8063 6.31 43.5863 5.75 44.5263 5.37 45.4663 4.99 46.5263 4.8 47.7063 4.8zM74.3598 13.08C74.3598 13.34 74.3398 13.71 74.2998 14.19H61.7298C61.9498 15.37 62.5198 16.31 63.4398 17.01 64.3798 17.69 65.5398 18.03 66.9198 18.03 68.6798 18.03 70.1298 17.45 71.2698 16.29L73.2798 18.6C72.5598 19.46 71.6498 20.11 70.5498 20.55 69.4498 20.99 68.2098 21.21 66.8298 21.21 65.0698 21.21 63.5198 20.86 62.1798 20.16 60.8398 19.46 59.7998 18.49 59.0598 17.25 58.3398 15.99 57.9798 14.57 57.9798 12.99 57.9798 11.43 58.3298 10.03 59.0298 8.79 59.7498 7.53 60.7398 6.55 61.9998 5.85 63.2598 5.15 64.6798 4.8 66.2598 4.8 67.8198 4.8 69.2098 5.15 70.4298 5.85 71.6698 6.53 72.6298 7.5 73.3098 8.76 74.0098 10 74.3598 11.44 74.3598 13.08zM66.2598 7.8C65.0598 7.8 64.0398 8.16 63.1998 8.88 62.3798 9.58 61.8798 10.52 61.6998 11.7H70.7898C70.6298 10.54 70.1398 9.6 69.3198 8.88 68.4998 8.16 67.4798 7.8 66.2598 7.8zM82.912 21.21C81.612 21.21 80.342 21.04 79.102 20.7 77.862 20.36 76.872 19.93 76.132 19.41L77.572 16.56C78.292 17.04 79.152 17.43 80.152 17.73 81.172 18.01 82.172 18.15 83.152 18.15 85.392 18.15 86.512 17.56 86.512 16.38 86.512 15.82 86.222 15.43 85.642 15.21 85.082 14.99 84.172 14.78 82.912 14.58 81.592 14.38 80.512 14.15 79.672 13.89 78.852 13.63 78.132 13.18 77.512 12.54 76.912 11.88 76.612 10.97 76.612 9.81 76.612 8.29 77.242 7.08 78.502 6.18 79.782 5.26 81.502 4.8 83.662 4.8 84.762 4.8 85.862 4.93 86.962 5.19 88.062 5.43 88.962 5.76 89.662 6.18L88.222 9.03C86.862 8.23 85.332 7.83 83.632 7.83 82.532 7.83 81.692 8 81.112 8.34 80.552 8.66 80.272 9.09 80.272 9.63 80.272 10.23 80.572 10.66 81.172 10.92 81.792 11.16 82.742 11.39 84.022 11.61 85.302 11.81 86.352 12.04 87.172 12.3 87.992 12.56 88.692 13 89.272 13.62 89.872 14.24 90.172 15.12 90.172 16.26 90.172 17.76 89.522 18.96 88.222 19.86 86.922 20.76 85.152 21.21 82.912 21.21zM11.314 46L8.596 42.13C8.26 42.154 7.996 42.166 7.804 42.166H4.69V46H2.89V33.4H7.804C9.436 33.4 10.72 33.79 11.656 34.57 12.592 35.35 13.06 36.424 13.06 37.792 13.06 38.764 12.82 39.592 12.34 40.276 11.86 40.96 11.176 41.458 10.288 41.77L13.276 46H11.314zM7.75 40.636C8.89 40.636 9.76 40.39 10.36 39.898 10.96 39.406 11.26 38.704 11.26 37.792 11.26 36.88 10.96 36.184 10.36 35.704 9.76 35.212 8.89 34.966 7.75 34.966H4.69V40.636H7.75zM19.8021 46.108C18.8541 46.108 18.0021 45.898 17.2461 45.478 16.4901 45.058 15.8961 44.482 15.4641 43.75 15.0441 43.006 14.8341 42.166 14.8341 41.23 14.8341 40.294 15.0441 39.46 15.4641 38.728 15.8961 37.984 16.4901 37.408 17.2461 37 18.0021 36.58 18.8541 36.37 19.8021 36.37 20.7501 36.37 21.5961 36.58 22.3401 37 23.0961 37.408 23.6841 37.984 24.1041 38.728 24.5361 39.46 24.7521 40.294 24.7521 41.23 24.7521 42.166 24.5361 43.006 24.1041 43.75 23.6841 44.482 23.0961 45.058 22.3401 45.478 21.5961 45.898 20.7501 46.108 19.8021 46.108zM19.8021 44.596C20.4141 44.596 20.9601 44.458 21.4401 44.182 21.9321 43.894 22.3161 43.498 22.5921 42.994 22.8681 42.478 23.0061 41.89 23.0061 41.23 23.0061 40.57 22.8681 39.988 22.5921 39.484 22.3161 38.968 21.9321 38.572 21.4401 38.296 20.9601 38.02 20.4141 37.882 19.8021 37.882 19.1901 37.882 18.6381 38.02 18.1461 38.296 17.6661 38.572 17.2821 38.968 16.9941 39.484 16.7181 39.988 16.5801 40.57 16.5801 41.23 16.5801 41.89 16.7181 42.478 16.9941 42.994 17.2821 43.498 17.6661 43.894 18.1461 44.182 18.6381 44.458 19.1901 44.596 19.8021 44.596zM32.1999 36.37C33.1239 36.37 33.9519 36.574 34.6839 36.982 35.4159 37.39 35.9859 37.96 36.3939 38.692 36.8139 39.424 37.0239 40.27 37.0239 41.23 37.0239 42.19 36.8139 43.042 36.3939 43.786 35.9859 44.518 35.4159 45.088 34.6839 45.496 33.9519 45.904 33.1239 46.108 32.1999 46.108 31.4919 46.108 30.8439 45.97 30.2559 45.694 29.6679 45.418 29.1819 45.016 28.7979 44.488V46H27.1419V32.644H28.8699V37.9C29.2539 37.396 29.7339 37.018 30.3099 36.766 30.8859 36.502 31.5159 36.37 32.1999 36.37zM32.0559 44.596C32.6679 44.596 33.2139 44.458 33.6939 44.182 34.1859 43.894 34.5699 43.498 34.8459 42.994 35.1339 42.478 35.2779 41.89 35.2779 41.23 35.2779 40.57 35.1339 39.988 34.8459 39.484 34.5699 38.968 34.1859 38.572 33.6939 38.296 33.2139 38.02 32.6679 37.882 32.0559 37.882 31.4559 37.882 30.9099 38.02 30.4179 38.296 29.9259 38.572 29.5419 38.968 29.2659 39.484 28.9899 39.988 28.8519 40.57 28.8519 41.23 28.8519 41.89 28.9899 42.478 29.2659 42.994 29.5419 43.498 29.9259 43.894 30.4179 44.182 30.9099 44.458 31.4559 44.596 32.0559 44.596z"/>
</svg>