<svg xmlns="http://www.w3.org/2000/svg" viewBox="0 0 25 25">
	<path d="M16.6666 1.28475H8.3333C4.44105 1.28475 1.28469 4.44111 1.28469 8.33336V16.6667C1.28469 20.5589 4.44105 23.7153 8.3333 23.7153H16.6666C20.5589 23.7153 23.7152 20.5589 23.7152 16.6667V8.33336C23.7152 4.44111 20.5589 1.28475 16.6666 1.28475ZM21.4236 16.6667C21.4236 19.2897 19.2897 21.4236 16.6666 21.4236H8.3333C5.71027 21.4236 3.57635 19.2897 3.57635 16.6667V8.33336C3.57635 5.71033 5.71027 3.57642 8.3333 3.57642H16.6666C19.2897 3.57642 21.4236 5.71033 21.4236 8.33336V16.6667Z"/>
	<path d="M12.5 6.84029C9.37443 6.84029 6.84029 9.37443 6.84029 12.5 6.84029 15.6256 9.37443 18.1597 12.5 18.1597 15.6256 18.1597 18.1597 15.6256 18.1597 12.5 18.1597 9.37443 15.6256 6.84029 12.5 6.84029zM12.5 15.8681C10.6437 15.8681 9.13196 14.3564 9.13196 12.5 9.13196 10.6423 10.6436 9.13196 12.5 9.13196 14.3564 9.13196 15.8681 10.6423 15.8681 12.5 15.8681 14.3564 14.3564 15.8681 12.5 15.8681zM18.0556 8.33332C18.8226 8.33332 19.4445 7.71149 19.4445 6.94443 19.4445 6.17737 18.8226 5.55554 18.0556 5.55554 17.2885 5.55554 16.6667 6.17737 16.6667 6.94443 16.6667 7.71149 17.2885 8.33332 18.0556 8.33332z"/>
</svg>