<svg xmlns="http://www.w3.org/2000/svg" viewBox="0 0 35 35">
  <rect width="35" height="35" fill="#496DD0" rx="17.5"/>
  <path d="M26.0703 8.88458C25.4914 8.35239 23.1479 6.64843 17.924 6.62509C17.924 6.62509 11.7664 6.25162 8.76463 9.00596C7.09335 10.6772 6.50514 13.1188 6.44445 16.1532C6.38376 19.183 6.3044 24.8644 11.7804 26.405H11.7851L11.7804 28.7532C11.7804 28.7532 11.7477 29.7055 12.3733 29.8969C13.1296 30.1304 13.5777 29.4068 14.3013 28.6271C14.6981 28.1976 15.2443 27.5721 15.6598 27.0912C19.4039 27.404 22.2842 26.6851 22.611 26.5777C23.3673 26.3303 27.6482 25.7841 28.3438 20.1027C29.0627 14.2579 27.9937 10.5559 26.0703 8.88458ZM26.7052 19.6919C26.117 24.4349 22.6484 24.7337 22.0088 24.9391C21.738 25.0278 19.2078 25.6581 16.0239 25.448C16.0239 25.448 13.6524 28.3097 12.9148 29.052C12.7981 29.1687 12.6627 29.2154 12.574 29.192C12.448 29.1593 12.4106 29.0099 12.4153 28.7905C12.4153 28.4731 12.434 24.8831 12.434 24.8831C12.4293 24.8831 12.4293 24.8831 12.434 24.8831C7.79827 23.5993 8.06904 18.7629 8.12039 16.2326C8.17175 13.7023 8.64792 11.6249 10.0624 10.2291C12.5974 7.93223 17.8306 8.27303 17.8306 8.27303C22.2469 8.2917 24.3617 9.62219 24.8518 10.0657C26.4811 11.4662 27.3121 14.8041 26.7052 19.6919Z"/>
  <path d="M20.0758 16.3213C19.9218 16.3213 19.7911 16.1999 19.7817 16.0412C19.7304 15.0375 19.2589 14.5473 18.2972 14.496C18.1338 14.4866 18.0078 14.3466 18.0171 14.1832C18.0264 14.0198 18.1665 13.8937 18.3299 13.9031C19.5997 13.9731 20.3093 14.7014 20.3746 16.0085C20.384 16.1719 20.2579 16.312 20.0945 16.3166C20.0852 16.3213 20.0805 16.3213 20.0758 16.3213Z"/>
  <path d="M21.5884 16.8256H21.5838C21.4204 16.8209 21.2897 16.6856 21.2943 16.5222C21.3177 15.5138 21.0282 14.6968 20.412 14.0246C19.8005 13.3523 18.9555 12.9882 17.8397 12.9088C17.6763 12.8948 17.555 12.7548 17.569 12.5914C17.583 12.428 17.723 12.3066 17.8864 12.3206C19.1469 12.414 20.1412 12.8528 20.8508 13.6278C21.5651 14.4074 21.9106 15.3831 21.8872 16.5362C21.8826 16.6996 21.7472 16.8256 21.5884 16.8256Z"/>
  <path d="M23.1386 17.4323C22.9752 17.4323 22.8445 17.3016 22.8445 17.1382 22.8305 15.3316 22.3123 13.9544 21.2573 12.9227 20.2162 11.905 18.8951 11.3868 17.3405 11.3728 17.1771 11.3728 17.0464 11.2374 17.0464 11.074 17.0464 10.9106 17.1818 10.7799 17.3405 10.7799 19.0538 10.7939 20.5103 11.3681 21.6634 12.4979 22.8212 13.6276 23.414 15.1869 23.4327 17.1289 23.4374 17.297 23.3067 17.4323 23.1386 17.4323 23.1433 17.4323 23.1433 17.4323 23.1386 17.4323zM18.3675 19.9766C18.3675 19.9766 18.7829 20.0139 19.007 19.7385L19.4412 19.1923C19.6513 18.9215 20.1601 18.7488 20.655 19.0242 20.9304 19.1783 21.4299 19.4864 21.738 19.7152 22.0695 19.9579 22.7417 20.5181 22.7464 20.5228 23.0685 20.7936 23.1432 21.1904 22.9238 21.6152 22.9238 21.6152 22.9238 21.6199 22.9238 21.6245 22.6997 22.0213 22.3963 22.3948 22.0181 22.7403 22.0135 22.7403 22.0135 22.7449 22.0088 22.7449 21.696 23.0064 21.3879 23.1558 21.0891 23.1884 21.0518 23.1978 21.0098 23.1978 20.9537 23.1978 20.823 23.1978 20.6923 23.1791 20.5616 23.1371L20.5523 23.1231C20.0854 22.9924 19.3105 22.6656 18.022 21.9513 17.1817 21.4891 16.4861 21.0176 15.8932 20.5461 15.5804 20.2987 15.263 20.0233 14.9362 19.6965 14.9269 19.6871 14.9129 19.6731 14.9035 19.6638 14.8942 19.6545 14.8802 19.6405 14.8708 19.6311 14.8615 19.6218 14.8475 19.6078 14.8382 19.5984 14.8288 19.5891 14.8148 19.5751 14.8055 19.5658 14.4834 19.239 14.2033 18.9215 13.9558 18.6088 13.4843 18.0205 13.0128 17.3203 12.5507 16.48 11.8364 15.1868 11.5096 14.4119 11.3789 13.9497L11.3649 13.9404C11.3229 13.8097 11.3042 13.679 11.3042 13.5482 11.3042 13.4922 11.3042 13.4502 11.3135 13.4129 11.3509 13.1094 11.5003 12.806 11.757 12.4932 11.757 12.4885 11.7617 12.4885 11.7617 12.4838 12.1072 12.101 12.4806 11.8023 12.8774 11.5782 12.8774 11.5782 12.8821 11.5782 12.8868 11.5782 13.3069 11.3588 13.7037 11.4335 13.9792 11.7556 13.9792 11.7556 14.5441 12.4325 14.7868 12.764 15.0156 13.0767 15.3237 13.5716 15.4777 13.847 15.7532 14.3419 15.5804 14.8507 15.3097 15.0608L14.7635 15.495C14.488 15.719 14.5254 16.1345 14.5254 16.1345 14.5254 16.1345 15.333 19.2063 18.3675 19.9766z"/>
</svg>
