<svg xmlns="http://www.w3.org/2000/svg" viewBox="0 0 25 25">
	<path d="M6.3583 8.33337H1.38885V23.6112H6.3583V8.33337zM19.8944 8.51254C19.8416 8.49587 19.7916 8.47782 19.7361 8.46254 19.6694 8.44726 19.6028 8.43476 19.5347 8.42365 19.2708 8.37087 18.9819 8.33337 18.643 8.33337 15.7458 8.33337 13.9083 10.4403 13.3028 11.2542V8.33337H8.33331V23.6112H13.3028V15.2778C13.3028 15.2778 17.0583 10.0473 18.643 13.8889 18.643 17.3181 18.643 23.6112 18.643 23.6112H23.6111V13.3014C23.6111 10.9931 22.0291 9.06949 19.8944 8.51254zM3.81941 6.25003C5.16177 6.25003 6.24997 5.16183 6.24997 3.81947 6.24997 2.47711 5.16177 1.38892 3.81941 1.38892 2.47705 1.38892 1.38885 2.47711 1.38885 3.81947 1.38885 5.16183 2.47705 6.25003 3.81941 6.25003z"/>
</svg>