<svg xmlns="http://www.w3.org/2000/svg" fill="none" stroke="#1F42A3" viewBox="0 0 32 32">
	<path d="M19.8323 15.1205C19.8295 15.0184 19.828 14.909 19.828 14.792C19.828 14.0235 19.9293 13.3789 20.1189 12.8482L20.1217 12.8403L20.1242 12.8324C20.4409 11.8427 20.9982 10.9015 21.8094 10.0089C22.6644 9.07257 23.6139 8.36769 24.6575 7.88601L25.1259 7.66983L24.8952 7.20842L24.3192 6.05642L24.1025 5.62297L23.6625 5.82605C21.3643 6.88671 19.599 8.39997 18.3898 10.3705C17.1892 12.3271 16.588 14.4658 16.588 16.776C16.588 18.0947 16.7418 19.3141 17.0545 20.4308C17.3623 21.5301 17.7659 22.4414 18.2791 23.1439C19.4592 24.8847 21.3173 25.724 23.744 25.724C25.6312 25.724 27.2082 25.2049 28.4273 24.1265L28.4273 24.1266L28.4351 24.1194C29.6581 22.9905 30.26 21.5077 30.26 19.72C30.26 17.8716 29.716 16.3798 28.5659 15.3232C27.431 14.2377 25.9336 13.716 24.128 13.716C22.4113 13.716 20.9671 14.1773 19.8323 15.1205ZM5.11233 15.1205C5.10948 15.0184 5.10798 14.909 5.10798 14.792C5.10798 14.0235 5.20931 13.3789 5.39885 12.8482L5.40165 12.8403L5.40419 12.8324C5.72094 11.8426 6.27827 10.9013 7.08968 10.0087C7.94461 9.07243 8.89398 8.36764 9.93751 7.88601L10.4059 7.66983L10.1752 7.20842L9.5992 6.05642L9.38247 5.62297L8.94245 5.82605C6.64435 6.88671 4.87902 8.39997 3.66982 10.3705C2.46917 12.3271 1.86798 14.4658 1.86798 16.776C1.86798 18.0947 2.02181 19.3141 2.3345 20.4308C2.6423 21.5301 3.04586 22.4414 3.55906 23.1439C4.73922 24.8847 6.59733 25.724 9.02398 25.724C10.9112 25.724 12.4882 25.2049 13.7073 24.1265L13.7073 24.1266L13.7151 24.1194C14.9381 22.9905 15.54 21.5077 15.54 19.72C15.54 17.8716 14.996 16.3798 13.8459 15.3232C12.711 14.2377 11.2136 13.716 9.40798 13.716C7.69129 13.716 6.24714 14.1773 5.11233 15.1205Z"/>
</svg>