<svg xmlns="http://www.w3.org/2000/svg" viewBox="0 0 35 35">
  <rect width="35" height="35" fill="#496DD0" rx="17.5"/>
  <path d="M7.86579 17.1142C12.9549 14.8504 16.3484 13.3579 18.0463 12.6368C22.8943 10.578 23.9017 10.2204 24.5583 10.2084C24.7027 10.206 25.0256 10.2425 25.2348 10.4158C25.4114 10.5621 25.46 10.7598 25.4832 10.8985C25.5065 11.0372 25.5354 11.3532 25.5124 11.6001C25.2497 14.4185 24.1129 21.258 23.5346 24.4147C23.2899 25.7504 22.8081 26.1982 22.3416 26.242C21.3278 26.3373 20.558 25.558 19.5761 24.9008C18.0397 23.8725 17.1717 23.2324 15.6803 22.2289C13.9568 21.0692 15.0741 20.4319 16.0563 19.3902C16.3134 19.1176 20.78 14.9694 20.8665 14.5931C20.8773 14.5461 20.8873 14.3706 20.7853 14.278C20.6832 14.1854 20.5325 14.2171 20.4238 14.2422C20.2697 14.278 17.8152 15.9344 13.0603 19.2115C12.3636 19.7 11.7326 19.938 11.1672 19.9255C10.5439 19.9118 9.3449 19.5657 8.45357 19.2699C7.36032 18.907 6.49143 18.7152 6.56709 18.099C6.6065 17.778 7.0394 17.4497 7.86579 17.1142Z"/>
</svg>
