<svg xmlns="http://www.w3.org/2000/svg" viewBox="0 0 35 35">
  <rect width="35" height="35" fill="#496DD0" rx="17.5"/>
  <path d="M25.3393 9.63336C23.4631 7.70205 20.8697 6.65363 18.221 6.65363C12.5926 6.65363 8.06788 11.2336 8.12306 16.8068C8.12306 18.5725 8.61968 20.2831 9.44738 21.8282L8.0127 27.0703L13.3652 25.6908C14.855 26.5185 16.5104 26.9048 18.1658 26.9048C23.739 26.9048 28.2638 22.3248 28.2638 16.7516C28.2638 14.0478 27.2154 11.5095 25.3393 9.63336ZM18.221 25.1942C16.7312 25.1942 15.2413 24.8079 13.9722 24.0354L13.6411 23.8698L10.4406 24.6975L11.2683 21.5523L11.0476 21.2212C8.61968 17.3034 9.77846 12.1165 13.7514 9.68854C17.7244 7.26061 22.8562 8.41939 25.2841 12.3924C27.712 16.3653 26.5532 21.4971 22.5803 23.925C21.3111 24.7527 19.7661 25.1942 18.221 25.1942ZM23.0769 19.0692L22.4699 18.7933C22.4699 18.7933 21.587 18.407 21.0352 18.1311C20.98 18.1311 20.9249 18.0759 20.8697 18.0759C20.7041 18.0759 20.5938 18.1311 20.4834 18.1863C20.4834 18.1863 20.4282 18.2415 19.6557 19.1243C19.6005 19.2347 19.4902 19.2899 19.3798 19.2899H19.3246C19.2695 19.2899 19.1591 19.2347 19.1039 19.1795L18.828 19.0692C18.221 18.7933 17.6692 18.4622 17.2278 18.0207C17.1174 17.9104 16.9519 17.8 16.8415 17.6897C16.4553 17.3034 16.069 16.862 15.7931 16.3653L15.7379 16.255C15.6827 16.1998 15.6827 16.1446 15.6276 16.0343C15.6276 15.9239 15.6276 15.8135 15.6827 15.7584C15.6827 15.7584 15.9035 15.4825 16.069 15.3169C16.1794 15.2066 16.2345 15.041 16.3449 14.9307C16.4553 14.7651 16.5104 14.5444 16.4553 14.3789C16.4001 14.1029 15.7379 12.6131 15.5724 12.282C15.462 12.1165 15.3517 12.0613 15.1861 12.0061H15.0206C14.9102 12.0061 14.7447 12.0061 14.5791 12.0061C14.4688 12.0061 14.3584 12.0613 14.2481 12.0613L14.1929 12.1165C14.0825 12.1716 13.9722 12.282 13.8618 12.3372C13.7514 12.4475 13.6963 12.5579 13.5859 12.6683C13.1996 13.1649 12.9789 13.7719 12.9789 14.3789C12.9789 14.8203 13.0893 15.2617 13.2548 15.648L13.31 15.8135C13.8066 16.862 14.4688 17.8 15.3517 18.6277L15.5724 18.8484C15.7379 19.014 15.9035 19.1243 16.0138 19.2899C17.1726 20.2831 18.4969 21.0005 19.9868 21.3867C20.1523 21.4419 20.3731 21.4419 20.5386 21.4971C20.7041 21.4971 20.9249 21.4971 21.0904 21.4971C21.3663 21.4971 21.6974 21.3867 21.9181 21.2764C22.0836 21.166 22.194 21.166 22.3044 21.0557L22.4147 20.9453C22.5251 20.8349 22.6354 20.7798 22.7458 20.6694C22.8562 20.559 22.9665 20.4487 23.0217 20.3383C23.1321 20.1176 23.1872 19.8417 23.2424 19.5658C23.2424 19.4554 23.2424 19.2899 23.2424 19.1795C23.2424 19.1795 23.1872 19.1243 23.0769 19.0692Z"/>
</svg>
